<svg width="210" height="90" viewBox="0 0 210 90" fill="none" xmlns="http://www.w3.org/2000/svg">
<g clip-path="url(#clip0_4_721)">
<path d="M42.243 43.931C43.0028 43.7122 43.6503 43.2114 44.053 42.531C44.5244 41.5843 44.7487 40.5337 44.705 39.477V38.192C44.793 36.8726 44.4126 35.5645 43.631 34.498C43.1435 34.0251 42.5584 33.6648 41.9168 33.4423C41.2751 33.2198 40.5925 33.1405 39.917 33.21H35V56.15H40.014C40.7321 56.2146 41.4556 56.1179 42.1315 55.867C42.8075 55.6162 43.4189 55.2174 43.921 54.7C44.7769 53.567 45.2022 52.1666 45.121 50.749V48.78C45.1623 47.6274 44.8855 46.4857 44.321 45.48C43.8447 44.7236 43.104 44.1714 42.243 43.931ZM36.828 34.907H39.884C40.3134 34.8553 40.749 34.9037 41.1566 35.0486C41.5641 35.1935 41.9326 35.4308 42.233 35.742C42.7139 36.5116 42.939 37.4136 42.876 38.319V39.771C42.891 40.3477 42.8179 40.9233 42.659 41.478C42.5419 41.8731 42.3138 42.2264 42.002 42.496C41.6711 42.7614 41.2811 42.9432 40.865 43.026C40.3089 43.1387 39.7423 43.1913 39.175 43.183H36.828V34.907ZM43.297 50.715C43.3642 51.7062 43.0989 52.6916 42.543 53.515C42.2211 53.854 41.8257 54.1146 41.3873 54.2769C40.9488 54.4392 40.479 54.4987 40.014 54.451H36.828V44.882H39.464C40.4976 44.8037 41.5245 45.1041 42.353 45.727C42.7071 46.1268 42.9739 46.5961 43.1363 47.105C43.2987 47.6138 43.3531 48.1509 43.296 48.682L43.297 50.715Z" fill="black"/>
<path d="M52.0262 33.207H50.1992V56.1471H52.0262V33.207Z" fill="black"/>
<path d="M66.4488 34.7043C66.0106 34.169 65.4535 33.7434 64.8219 33.4613C64.0916 33.1462 63.302 32.9921 62.5069 33.0093C61.7164 32.9907 60.9314 33.145 60.2068 33.4613C59.5826 33.7432 59.0342 34.1692 58.6068 34.7043C58.1797 35.2598 57.8676 35.8948 57.6888 36.5723C57.485 37.3293 57.3841 38.1104 57.3888 38.8943V50.4514C57.3839 51.2353 57.4848 52.0164 57.6888 52.7734C57.8674 53.4509 58.1795 54.086 58.6068 54.6414C59.0342 55.1765 59.5826 55.6025 60.2068 55.8843C60.9314 56.2008 61.7164 56.355 62.5069 56.3364C63.302 56.3539 64.0917 56.1997 64.8219 55.8843C65.4536 55.6028 66.0107 55.1775 66.4488 54.6424C66.8865 54.0903 67.2052 53.4536 67.3848 52.7723C67.589 52.0154 67.6899 51.2343 67.6848 50.4504V38.9043C67.6897 38.1204 67.5888 37.3393 67.3848 36.5823C67.2059 35.8984 66.8872 35.2589 66.4488 34.7043ZM65.8548 50.5494C65.8949 51.592 65.6181 52.6223 65.0608 53.5044C64.7693 53.8977 64.3811 54.209 63.9337 54.4081C63.4864 54.6071 62.9952 54.6871 62.5078 54.6404C62.0252 54.6899 61.5381 54.6113 61.0957 54.4123C60.6532 54.2134 60.2711 53.9012 59.9878 53.5074C59.4501 52.6174 59.1845 51.5895 59.2238 50.5504V38.8043C59.1846 37.7652 59.4502 36.7374 59.9878 35.8473C60.271 35.4534 60.6531 35.1412 61.0956 34.9422C61.5381 34.7433 62.0252 34.6647 62.5078 34.7143C62.9951 34.6674 63.4863 34.7472 63.9336 34.9461C64.3809 35.1449 64.7693 35.4561 65.0608 35.8493C65.6176 36.7313 65.8944 37.7611 65.8548 38.8033V50.5494Z" fill="black"/>
<path d="M80.7499 45.7956C80.126 45.2158 79.4617 44.6811 78.762 44.1956C78.0854 43.7291 77.4338 43.2274 76.8099 42.6925C76.2292 42.1995 75.7286 41.6192 75.3259 40.9725C74.9271 40.2856 74.7289 39.5005 74.7539 38.7065C74.7141 37.6918 74.9683 36.6872 75.486 35.8135C75.761 35.4294 76.1331 35.1252 76.5643 34.9319C76.9954 34.7386 77.4701 34.6633 77.9399 34.7135C78.4475 34.6984 78.9517 34.8012 79.413 35.0136C79.8051 35.2064 80.1437 35.4928 80.3989 35.8475C80.6646 36.2285 80.8529 36.658 80.9529 37.1115C81.0725 37.6441 81.1305 38.1887 81.1259 38.7345V39.4865H82.8889V38.8315C82.8944 38.0561 82.8004 37.283 82.6089 36.5315C82.4392 35.8618 82.1384 35.2323 81.7239 34.6795C81.3148 34.1498 80.7828 33.7276 80.1739 33.4495C79.4579 33.1424 78.6838 32.994 77.9049 33.0145C77.1888 32.9655 76.4713 33.0866 75.8108 33.3678C75.1504 33.649 74.5659 34.0823 74.1049 34.6325C73.2662 35.8561 72.8518 37.3209 72.9249 38.8025C72.8983 39.7649 73.1102 40.719 73.5419 41.5795C73.9444 42.3318 74.4685 43.0123 75.0929 43.5936C75.7146 44.1713 76.3799 44.7002 77.0829 45.1756C77.7623 45.634 78.4147 46.1312 79.0369 46.6646C79.6167 47.1582 80.1172 47.7379 80.5209 48.3836C80.9162 49.0603 81.114 49.8342 81.0919 50.6176C81.132 51.6338 80.8727 52.6395 80.3459 53.5096C80.0275 53.8563 79.6404 54.1331 79.2094 54.3224C78.7784 54.5118 78.3127 54.6096 77.8419 54.6096C77.3711 54.6096 76.9054 54.5118 76.4744 54.3224C76.0434 54.1331 75.6564 53.8563 75.3379 53.5096C74.8118 52.6392 74.5524 51.6338 74.5919 50.6176V49.1876H72.8289V50.5206C72.8226 51.2961 72.9168 52.0692 73.1089 52.8206C73.2789 53.4936 73.5852 54.1247 74.0089 54.6746C74.4294 55.2052 74.9718 55.6264 75.59 55.9026C77.0564 56.4824 78.6885 56.4824 80.1549 55.9026C80.7732 55.6266 81.3156 55.2053 81.736 54.6746C82.1592 54.1243 82.4654 53.4934 82.6359 52.8206C82.8278 52.0691 82.9219 51.2961 82.9159 50.5206C82.9414 49.5734 82.7285 48.6351 82.2969 47.7916C81.8922 47.0472 81.3698 46.3732 80.7499 45.7956Z" fill="black"/>
<path d="M94.9457 45.7946C94.3217 45.215 93.6574 44.6803 92.9577 44.1946C92.2802 43.7272 91.6276 43.2245 91.0027 42.6886C90.4221 42.1955 89.9215 41.6153 89.5187 40.9686C89.12 40.2816 88.9219 39.4966 88.9468 38.7026C88.907 37.6879 89.1612 36.6833 89.6787 35.8096C89.9539 35.4256 90.326 35.1214 90.7571 34.9281C91.1882 34.7349 91.6629 34.6595 92.1327 34.7096C92.6403 34.6944 93.1445 34.7971 93.6057 35.0096C93.9977 35.2027 94.3363 35.4891 94.5917 35.8436C94.8573 36.2247 95.0455 36.6541 95.1457 37.1076C95.2652 37.6402 95.3233 38.1848 95.3188 38.7306V39.4826H97.0818V38.8276C97.0874 38.0521 96.9932 37.2791 96.8017 36.5276C96.6324 35.8578 96.3315 35.2282 95.9167 34.6756C95.5081 34.1458 94.9764 33.7236 94.3677 33.4456C93.6516 33.1386 92.8776 32.9902 92.0987 33.0106C91.3826 32.9616 90.6651 33.0826 90.0047 33.3638C89.3443 33.645 88.7597 34.0784 88.2987 34.6286C87.4605 35.8524 87.0463 37.3171 87.1197 38.7986C87.0931 39.761 87.3051 40.7151 87.7367 41.5756C88.1391 42.3279 88.6632 43.0084 89.2878 43.5897C89.9092 44.1676 90.5745 44.6965 91.2777 45.1717C91.9567 45.6303 92.6087 46.1274 93.2307 46.6606C93.8105 47.1543 94.3111 47.734 94.7148 48.3796C95.1103 49.0562 95.3081 49.8302 95.2857 50.6136C95.3258 51.6299 95.0664 52.6356 94.5397 53.5056C94.2212 53.8524 93.8343 54.1292 93.4032 54.3185C92.9722 54.5079 92.5065 54.6057 92.0357 54.6057C91.565 54.6057 91.0993 54.5079 90.6682 54.3185C90.2372 54.1292 89.8502 53.8524 89.5317 53.5056C89.0049 52.6356 88.7452 51.63 88.7848 50.6136V49.1837H87.0218V50.5167C87.0157 51.2922 87.1097 52.0652 87.3017 52.8167C87.4716 53.4898 87.778 54.1208 88.2018 54.6707C88.6221 55.2014 89.1645 55.6227 89.7827 55.8987C91.2492 56.4784 92.8813 56.4784 94.3478 55.8987C94.9657 55.6226 95.5077 55.2013 95.9277 54.6707C96.351 54.1205 96.6573 53.4896 96.8277 52.8167C97.0194 52.0652 97.1135 51.2922 97.1078 50.5167C97.1334 49.5695 96.9205 48.6311 96.4887 47.7877C96.0849 47.0447 95.5639 46.3717 94.9457 45.7946Z" fill="black"/>
<path d="M105.199 33.1758L100.185 56.1478H101.89L103.019 51.1478H109.784L110.914 56.1478H112.749L107.637 33.1758H105.199ZM103.323 49.5108L106.372 35.8378L109.481 49.5108H103.323Z" fill="black"/>
<path d="M125.538 51.4631L119.051 33.207H116.822V56.1471H118.522V36.836L125.299 56.1471H127.239V33.207H125.539L125.538 51.4631Z" fill="black"/>
<path d="M141.612 34.7094C141.189 34.1781 140.649 33.7525 140.033 33.4664C138.57 32.8628 136.928 32.8628 135.465 33.4664C134.849 33.7523 134.308 34.1779 133.886 34.7094C133.46 35.2641 133.154 35.9007 132.986 36.5794C132.794 37.3374 132.7 38.1166 132.706 38.8984V50.4554C132.7 51.2375 132.794 52.0171 132.986 52.7754C133.154 53.4541 133.46 54.0908 133.886 54.6454C134.308 55.1772 134.849 55.6029 135.465 55.8884C136.928 56.4917 138.571 56.4917 140.034 55.8884C140.65 55.6026 141.19 55.177 141.613 54.6454C142.039 54.0909 142.345 53.4541 142.513 52.7754C142.705 52.0175 142.799 51.2382 142.793 50.4564V47.7034H141.036V50.5534C141.04 51.1048 140.982 51.655 140.863 52.1934C140.765 52.6537 140.571 53.0883 140.295 53.4694C140.032 53.8235 139.69 54.1103 139.295 54.3064C138.819 54.5077 138.307 54.6115 137.79 54.6115C137.273 54.6115 136.761 54.5077 136.285 54.3064C135.89 54.1107 135.547 53.8238 135.285 53.4694C135.009 53.0887 134.816 52.6543 134.718 52.1944C134.599 51.6559 134.541 51.1058 134.545 50.5544V38.8034C134.541 38.2516 134.599 37.7012 134.718 37.1624C134.818 36.6971 135.012 36.257 135.287 35.8684C135.546 35.5074 135.889 35.2153 136.287 35.0174C136.763 34.8163 137.275 34.7127 137.792 34.7127C138.309 34.7127 138.82 34.8163 139.297 35.0174C139.694 35.2155 140.038 35.5076 140.297 35.8684C140.571 36.2569 140.765 36.6966 140.866 37.1614C140.984 37.7006 141.041 38.2514 141.036 38.8034V40.9434H142.799V38.9034C142.804 38.1213 142.71 37.3417 142.519 36.5834C142.349 35.9029 142.04 35.2648 141.612 34.7094Z" fill="black"/>
<path d="M148.101 56.1482H157.354V54.4481H149.93V45.3641H156.095V43.6642H149.93V34.9031H157.354V33.2031H148.101V56.1482Z" fill="black"/>
<path d="M165.707 45.7402C165.324 45.7402 164.949 45.8538 164.63 46.0668C164.312 46.2797 164.063 46.5824 163.917 46.9365C163.77 47.2906 163.732 47.6803 163.806 48.0562C163.881 48.4322 164.066 48.7775 164.337 49.0485C164.608 49.3196 164.953 49.5042 165.329 49.5789C165.705 49.6537 166.095 49.6153 166.449 49.4686C166.803 49.322 167.105 49.0736 167.318 48.7549C167.531 48.4362 167.645 48.0615 167.645 47.6782C167.645 47.1643 167.44 46.6717 167.077 46.3084C166.713 45.945 166.221 45.7407 165.707 45.7402Z" fill="black"/>
<path d="M165.707 52.459C165.324 52.459 164.949 52.5727 164.63 52.7856C164.312 52.9986 164.063 53.3012 163.917 53.6554C163.77 54.0095 163.732 54.3992 163.806 54.7751C163.881 55.151 164.066 55.4964 164.337 55.7674C164.608 56.0384 164.953 56.223 165.329 56.2978C165.705 56.3726 166.095 56.3342 166.449 56.1875C166.803 56.0408 167.105 55.7924 167.318 55.4737C167.531 55.155 167.645 54.7803 167.645 54.397C167.645 53.8832 167.44 53.3906 167.077 53.0272C166.713 52.6639 166.221 52.4595 165.707 52.459Z" fill="black"/>
<path d="M172.383 52.459C172 52.459 171.625 52.5727 171.306 52.7856C170.987 52.9986 170.739 53.3012 170.592 53.6554C170.446 54.0095 170.407 54.3992 170.482 54.7751C170.557 55.151 170.741 55.4964 171.012 55.7674C171.283 56.0384 171.629 56.223 172.005 56.2978C172.381 56.3726 172.77 56.3342 173.125 56.1875C173.479 56.0408 173.781 55.7924 173.994 55.4737C174.207 55.155 174.321 54.7803 174.321 54.397C174.32 53.8832 174.116 53.3906 173.753 53.0272C173.389 52.6639 172.897 52.4595 172.383 52.459Z" fill="black"/>
<path d="M159.038 34.5471V33.4051H158.604V33.2051H159.704V33.4051H159.267V34.5471H159.038Z" fill="black"/>
<path d="M159.919 34.548V33.207H160.248L160.587 34.278L160.914 33.207H161.236V34.548H161.036V33.423L160.69 34.548H160.49L160.13 33.406V34.548H159.919Z" fill="black"/>
</g>
<defs>
<clipPath id="clip0_4_721">
<rect width="210" height="89.9999" fill="white"/>
</clipPath>
</defs>
</svg>
