<svg width="210" height="90" viewBox="0 0 210 90" fill="none" xmlns="http://www.w3.org/2000/svg">
<g clip-path="url(#clip0_4_706)">
<g clip-path="url(#clip1_4_706)">
<path d="M41.646 29.7181L56.9506 45L55.5059 46.4468L39.9753 30.8936L25.8894 45L39.9753 59.0611L51.1718 47.8033L39.9304 36.5451L31.5327 44.9547L41.42 54.8563L39.9753 56.3031L28.6433 44.9547L29.3659 44.2315L39.2078 34.4201L39.2531 34.3748L39.9304 33.7418L54.0612 47.8936L40.6525 61.3218L39.9753 62L23 45L24.2191 43.7342L38.2148 29.7181L39.9304 28L41.646 29.7181ZM161.763 36.4095C156.977 36.4095 153.094 40.298 153.094 45.0903C153.094 49.883 156.977 53.7715 161.763 53.7715C166.548 53.7715 170.431 49.883 170.431 45.0903C170.431 40.298 166.503 36.4095 161.763 36.4095ZM76.6148 43.8698V50.7419L76.3439 51.0132C74.5381 52.8219 72.3713 53.7261 69.9784 53.7261C63.9736 53.7261 61.265 49.3857 61.265 45.0903C61.265 42.5583 62.0777 40.3883 63.6578 38.8059C65.238 37.2234 67.4501 36.3642 69.9784 36.3642C72.326 36.3642 74.4929 37.2688 76.1636 38.8962L76.7955 39.5291L74.8992 41.6091L74.2219 40.9309C73.1387 39.891 71.5586 39.2578 69.9784 39.2578C68.3077 39.2578 66.863 39.8004 65.8699 40.8402C64.8316 41.9254 64.2445 43.4176 64.2445 45.1357C64.2445 47.8033 65.7345 50.8775 70.0233 50.8775C71.3778 50.8775 72.6871 50.4256 73.7254 49.6117V46.6728H70.4297V43.8698H76.6148ZM144.02 36.3192C146.819 36.3192 149.076 38.5799 149.076 41.3828C149.076 42.5133 148.715 43.5079 148.128 44.3671C149.483 45.2713 150.386 46.8084 150.34 48.6172C150.34 51.4201 148.083 53.6808 145.284 53.6808H137.88V36.3192H144.02ZM84.1998 36.5905V50.6516H92.7325V53.5905H81.2198V36.5905H84.1998ZM178.828 42.468L182.982 36.6355H186.368L185.601 37.811L185.465 38.0823L180.679 44.9097L186.007 52.3697L187 53.5905H183.253L178.828 47.3057L174.404 53.5905H170.837L171.65 52.3697L171.83 52.1437L177.023 44.9097L172.056 37.8563L171.108 36.6355H174.72L178.828 42.468ZM124.923 44.6834L130.16 36.5905H133.004V53.5905H130.024V42.2421L125.6 48.9788L124.923 50.0186L124.245 48.9788L119.821 42.1967V53.5905H116.841V36.5905H119.595L124.923 44.6834ZM105.464 36.5905L113.094 53.5452H109.843L108.173 49.7927H100.317L98.692 53.5452H95.4415L103.026 36.5905H105.464ZM161.763 50.7419C158.647 50.7419 156.119 48.2102 156.119 45.0903C156.119 41.9707 158.647 39.4388 161.763 39.4388C164.878 39.4388 167.406 41.9707 167.406 45.0903C167.361 48.2102 164.833 50.7419 161.763 50.7419ZM145.329 50.6516C146.458 50.6516 147.406 49.702 147.451 48.5718C147.451 47.3963 146.503 46.4468 145.329 46.4468H140.859V50.6516H145.329ZM106.864 46.9441L104.2 40.8402L101.536 46.9441H106.864ZM144.065 43.5079C145.239 43.5079 146.187 42.5583 146.187 41.3828C146.187 40.2073 145.239 39.2578 144.065 39.2578H140.859V43.5079H144.065Z" fill="#343434"/>
</g>
</g>
<defs>
<clipPath id="clip0_4_706">
<rect width="210" height="89.9999" fill="white"/>
</clipPath>
<clipPath id="clip1_4_706">
<rect width="164" height="34" fill="white" transform="translate(23 28)"/>
</clipPath>
</defs>
</svg>
