<svg width="210" height="90" viewBox="0 0 210 90" fill="none" xmlns="http://www.w3.org/2000/svg">
<g clip-path="url(#clip0_4_749)">
<path d="M146.2 64C146.2 64.1 146.1 64.1 146.1 64.2C145.9 65.9 145 67 143.6 67.8C142.5 68.4 141.3 68.6 140.1 68.4C139 68.3 138 67.9 137 67.3C137 67.3 136.9 67.3 136.8 67.2C136.8 67.5 136.8 67.8 136.8 68.1C135.6 68.1 134.3 68.1 133.1 68.1C133.1 66.4 133.1 64.6 133.1 62.9C134.3 62.9 135.5 62.9 136.7 62.9C136.7 63 136.8 63.1 136.8 63.2C137 63.7 137.3 64.1 137.7 64.5C138.3 65 139 65.2 139.8 65C140.2 64.9 140.4 64.6 140.5 64.2C140.6 63.7 140.5 63.3 140.1 63.1C139.6 62.8 139.1 62.5 138.7 62.3C138.1 62 137.4 61.7 136.8 61.4C135.9 61 135 60.5 134.3 59.7C132.7 58 132.5 55.2 133.9 53.4C134.6 52.5 135.7 51.9 136.8 51.7C138.4 51.4 139.9 51.7 141.3 52.5C141.4 52.6 141.5 52.6 141.6 52.7C141.6 52.7 141.6 52.7 141.7 52.7C141.7 52.6 141.7 52.4 141.7 52.3C141.7 52.2 141.7 52.1 141.7 51.9C142.9 51.9 144.2 51.9 145.4 51.9C145.5 52.1 145.5 56.1 145.4 56.5C144.2 56.5 143.1 56.5 141.9 56.5C141.8 56.4 141.8 56.3 141.7 56.2C141.4 55.7 141.1 55.3 140.7 55C140.2 54.6 139.6 54.5 138.9 54.7C138.5 54.8 138.3 55.1 138.2 55.5C138.1 55.9 138.3 56.2 138.6 56.4C139.2 56.8 139.9 57.1 140.5 57.5C141.2 57.9 142 58.2 142.7 58.6C143.6 59.1 144.4 59.7 145 60.5C145.5 61.2 145.9 62 146 62.8C146 62.9 146 62.9 146.1 63C146.2 63.4 146.2 63.7 146.2 64ZM63 55.9C63.4 55.9 63.9 55.9 64.3 55.9C64.3 58.7 64.3 61.5 64.3 64.4C63.9 64.4 63.4 64.5 63 64.5C63 65.8 63 67.1 63 68.4C63.1 68.4 63.2 68.4 63.4 68.4C66.1 68.4 68.9 68.4 71.6 68.4C71.7 68.4 71.9 68.4 72 68.4C72 67.1 72 65.8 72 64.5C71.6 64.5 71.2 64.5 70.7 64.5C70.7 61.7 70.7 58.8 70.7 56C71.1 56 71.5 56 72 56C72 54.7 72 53.4 72 52.1C71.8 52.1 71.7 52.1 71.6 52.1C68.9 52.1 66.1 52.1 63.4 52.1C63.3 52.1 63.2 52.1 63 52.1C63 53.3 63 54.6 63 55.9ZM89.6 78.6C89.9 78.6 90.2 78.4 90.5 78.2C90.6 78.2 90.7 78.1 90.7 78C90.7 77.8 90.7 77.5 90.7 77.2C90.6 77.3 90.5 77.3 90.4 77.4C89.9 77.7 89.3 77.9 88.8 77.8C87.9 77.7 87.2 76.9 87.3 75.9C88.6 75.9 89.8 75.9 91.1 75.9C91.1 75.4 91.1 75 91 74.5C90.8 73.7 90.3 73.1 89.5 72.9C88.2 72.6 86.9 73.3 86.5 74.6C86.3 75.3 86.3 76 86.5 76.7C86.7 77.6 87.2 78.2 88.1 78.4C88.5 78.7 89.2 78.7 89.6 78.6ZM87.2 75.3C87.2 74.3 88.2 73.5 89.2 73.8C89.8 74 90.1 74.6 90 75.3C89.1 75.3 88.2 75.3 87.2 75.3ZM124.1 78.6C124.3 78.5 124.7 78.4 124.9 78.3C125 78.3 125.1 78.2 125.1 78.1C125.1 77.9 125.1 77.6 125.1 77.4C125 77.5 124.9 77.5 124.8 77.6C124.3 77.9 123.7 78 123.1 78C122.2 77.9 121.5 77.1 121.7 76.2C123 76.2 124.2 76.2 125.5 76.2C125.6 75.6 125.5 74.8 125.3 74.3C125 73.7 124.6 73.3 124 73.1C122.7 72.8 121.4 73.5 121 74.8C120.8 75.4 120.8 76 120.9 76.6C121.1 77.6 121.6 78.4 122.6 78.7C122.9 78.7 123.7 78.7 124.1 78.6ZM121.8 75.3C121.8 74.4 122.5 73.8 123.3 73.8C124.1 73.8 124.7 74.4 124.6 75.3C123.6 75.3 122.7 75.3 121.8 75.3ZM100.2 78.6C100.4 78.5 100.6 78.4 100.8 78.3C101 78.2 101.1 78 101.3 77.8C101.3 78.1 101.3 78.3 101.3 78.5C101.6 78.5 101.9 78.5 102.2 78.5C102.2 78.4 102.2 78.3 102.2 78.2C102.2 77.1 102.2 76.1 102.2 75C102.2 74.8 102.2 74.6 102.1 74.3C102 73.7 101.7 73.2 101 73C100.1 72.8 99.3 72.9 98.5 73.3C98.4 73.3 98.3 73.4 98.3 73.5C98.3 73.8 98.3 74 98.3 74.3C98.4 74.2 98.5 74.1 98.6 74.1C99 73.8 99.5 73.7 100 73.7C100.8 73.7 101.3 74.2 101.1 75.1C100.7 75.2 100.3 75.2 99.9 75.3C99.5 75.4 99.1 75.5 98.7 75.6C98.3 75.8 97.9 76.1 97.8 76.6C97.6 77.5 97.8 78.4 98.8 78.7C99.5 78.7 100.1 78.7 100.2 78.6ZM101.2 76.8C101 77.6 100.3 78 99.6 77.9C99.2 77.8 98.8 77.5 98.8 77.1C98.7 76.6 98.9 76.3 99.4 76.1C99.6 76 99.9 76 100.2 75.9C100.5 75.8 100.8 75.8 101.1 75.8C101.1 75.8 101.2 75.8 101.3 75.8C101.3 76.2 101.3 76.5 101.2 76.8ZM65.8 78.6C66 78.5 66.2 78.5 66.4 78.4C67.4 77.8 67.5 76.5 66.5 75.9C66.2 75.7 65.9 75.6 65.7 75.5C65.4 75.4 65.2 75.3 64.9 75.1C64.6 75 64.5 74.7 64.5 74.4C64.5 74.1 64.7 73.9 65 73.8C65.3 73.7 65.6 73.7 65.9 73.7C66.2 73.8 66.6 73.9 66.9 74C66.9 73.7 66.9 73.5 66.9 73.2C66.3 72.9 65.7 72.9 65.1 73C64.7 73.1 64.3 73.2 64 73.5C63.4 74 63.4 75.1 64.2 75.6C64.4 75.7 64.6 75.8 64.7 75.9C65 76 65.3 76.1 65.5 76.3C65.7 76.4 65.9 76.5 66.1 76.7C66.5 77.1 66.4 77.6 65.9 77.8C65.8 77.8 65.6 77.9 65.5 77.9C64.9 78 64.4 77.9 63.9 77.6C63.8 77.5 63.7 77.5 63.6 77.4C63.6 77.5 63.6 77.6 63.6 77.7C63.6 77.9 63.6 78 63.6 78.2C63.6 78.3 63.7 78.4 63.8 78.4C64 78.5 64.2 78.5 64.3 78.6C64.9 78.8 65.3 78.8 65.8 78.6ZM144.5 78.6C144.7 78.5 144.9 78.4 145.1 78.3C146.1 77.7 146.2 76.4 145.2 75.8C144.9 75.6 144.6 75.5 144.4 75.4C144.1 75.3 143.9 75.2 143.6 75C143.3 74.9 143.2 74.6 143.2 74.3C143.2 74 143.4 73.8 143.7 73.7C144 73.6 144.3 73.6 144.6 73.6C144.9 73.7 145.3 73.8 145.6 73.9C145.6 73.6 145.6 73.4 145.6 73.1C145 72.8 144.4 72.8 143.8 72.9C143.4 73 143 73.1 142.7 73.4C142.1 73.9 142.1 75 142.9 75.5C143.1 75.6 143.3 75.7 143.4 75.8C143.7 75.9 144 76 144.2 76.2C144.4 76.3 144.6 76.4 144.7 76.5C145.1 76.9 145 77.4 144.5 77.6C144.4 77.6 144.2 77.7 144.1 77.7C143.5 77.8 143 77.7 142.5 77.4C142.4 77.4 142.3 77.3 142.2 77.3C142.2 77.4 142.2 77.5 142.2 77.6C142.2 77.8 142.2 77.9 142.2 78.1C142.2 78.2 142.3 78.3 142.4 78.3C142.6 78.4 142.8 78.4 142.9 78.5C143.5 78.8 144 78.8 144.5 78.6ZM88.2 30.4C88.1 32.5 88.3 34.5 88.9 36.5C90 40.2 91.9 43.3 95 45.7C98.3 48.3 102.1 49.4 106.4 48.9C108.9 48.6 111.2 47.7 113.3 46.2C116.6 43.9 118.8 40.7 120 36.9C120.7 34.7 121 32.5 120.8 30.3C120.8 30.2 120.8 30.2 120.8 30.1C120.9 30.1 121 30 121.1 30C121.3 29.9 121.6 29.9 121.8 29.8C124.6 29 125.7 26.4 125 24.1C124.3 21.8 122 20.5 119.6 21.1C119.1 21.2 118.7 21.4 118.3 21.5C117.9 20.9 117.6 20.4 117.1 19.8C114.1 16.1 110.4 13.8 105.6 13.4C103.8 13.3 102 13.4 100.3 14C96.4 15.2 93.3 17.7 91.1 21.1C91 21.2 90.9 21.3 90.9 21.5C90.8 21.4 90.6 21.4 90.5 21.4C89.8 21.1 89.1 21 88.4 21C85.8 21 83.7 23.3 84.1 26.1C84.3 27.8 85.4 29 87 29.6C87.4 29.8 87.8 29.8 88.3 30C88.2 30.2 88.2 30.3 88.2 30.4ZM107.1 18.4C108.1 18.2 109 18.3 109.9 18.7C112.5 19.9 114 21.8 114.7 24.5C115 25.7 115 26.9 114.7 28.1C114.6 28.3 114.7 28.5 114.8 28.6C116.1 30 117 31.7 117.5 33.5C118.1 36.1 117.7 38.6 116.3 40.9C114.9 43.2 112.9 44.9 110.5 45.9C108.3 46.8 106.1 47.2 103.7 47.1C101 47 98.6 46.2 96.4 44.7C94.4 43.3 92.8 41.5 92 39.2C91 36.4 91.1 33.6 92.5 31C93 30.1 93.5 29.3 94.2 28.5C94.4 28.3 94.4 28.1 94.4 27.8C94 25.8 94.3 23.8 95.3 22C96.2 20.5 97.4 19.3 99 18.6C100 18.1 101 18 102.1 18.2C103 18.4 103.7 18.8 104.3 19.5C104.4 19.6 104.5 19.7 104.6 19.8C105.2 19.1 106 18.6 107.1 18.4ZM115 9.5C114.9 7.9 114.8 6.3 114.7 4.6C114.7 4.4 114.7 4.3 114.9 4.2C115.1 4.1 115.3 3.9 115.5 3.8C115.7 3.6 115.9 3.4 115.9 3.1C116 2.5 115.7 2.1 115.3 1.8C114.8 1.5 114.3 1.5 113.8 1.8C113.3 2.1 113.1 2.6 113.2 3.2C113.3 3.4 113.3 3.7 113.3 3.9C111.6 5.3 109.9 6.6 108.3 8C107.3 6.2 106.4 4.4 105.4 2.6C105.4 2.5 105.5 2.5 105.5 2.5C105.9 2.1 106 1.7 105.9 1.2C105.8 0.5 105.3 0 104.6 0C104 0 103.4 0.5 103.3 1.1C103.2 1.6 103.3 2 103.6 2.5C103.7 2.6 103.7 2.7 103.8 2.8C102.8 4.7 101.9 6.6 100.9 8.5C99.2 7 97.5 5.5 95.8 4.1C95.8 3.7 95.9 3.3 95.9 2.9C95.9 2.6 95.8 2.4 95.6 2.1C95 1.5 94.2 1.5 93.6 2.1C93.1 2.6 93 3.6 93.7 4C93.9 4.1 94.1 4.3 94.3 4.4C94.7 4.3 94.7 4.4 94.7 4.5C94.7 4.8 94.6 5.1 94.6 5.5C94.5 6.8 94.4 8 94.3 9.3C94.3 9.8 94.2 10.2 94.2 10.7C92.2 9.9 90.3 9 88.3 8.2C88.2 7.9 88.1 7.5 88.1 7.2C88 6.9 87.8 6.7 87.5 6.5C86.8 6.2 86.1 6.4 85.7 7C85.2 7.7 85.6 8.7 86.4 8.9C86.6 9 86.9 9 87.1 9C87.4 9 87.6 9.2 87.8 9.5C89.2 12.1 90.6 14.7 91.9 17.4C91.9 17.5 92 17.6 92.1 17.7C92.2 17.6 92.3 17.5 92.4 17.4C93.7 16.1 95.1 15 96.7 14.1C98.9 12.9 101.3 12.2 103.9 12.1C104.4 12.1 105 12.1 105.5 12.1C106.7 12.1 107.8 12.2 108.9 12.5C112.2 13.3 115 15 117.3 17.4C117.4 17.5 117.5 17.6 117.6 17.7C117.7 17.6 117.7 17.5 117.8 17.4C118.4 16.2 119 15 119.6 13.8C120.4 12.3 121.1 10.9 121.9 9.4C122 9.2 122.1 9.1 122.4 9.1C122.6 9.1 122.8 9.1 123 9C123.3 8.9 123.6 8.8 123.8 8.6C124.1 8.2 124.2 7.6 123.9 7.1C123.6 6.6 123 6.3 122.5 6.4C121.9 6.5 121.5 6.9 121.4 7.5C121.4 7.7 121.3 7.8 121.3 8C121.3 8.3 121.2 8.4 120.9 8.5C119.1 9.3 117.3 10.1 115.5 10.9C115.4 10.9 115.3 11 115.1 11C115 10.4 115 9.9 115 9.5ZM107.9 60.3C107.8 60.2 107.7 60.1 107.7 60C105.9 57.4 104.1 54.9 102.3 52.3C102.2 52.1 102 52 101.8 52C99.4 52 97.1 52 94.7 52C94.6 52 94.5 52 94.3 52C94.3 53.3 94.3 54.6 94.3 55.9C94.8 56 95.2 55.9 95.7 56C95.7 58.8 95.8 61.6 95.8 64.4C95.3 64.4 94.8 64.4 94.3 64.5C94.2 65 94.2 68.1 94.3 68.4C96.5 68.4 98.8 68.4 101 68.4C101 67.1 101 65.8 101 64.5C100.5 64.5 100 64.5 99.5 64.5C99.5 62.6 99.5 60.8 99.5 58.9C99.6 59 99.7 59.1 99.8 59.2C101.9 62.3 104.1 65.3 106.2 68.4C106.3 68.6 106.5 68.7 106.7 68.7C108.3 68.7 109.8 68.7 111.4 68.7C111.5 68.7 111.6 68.7 111.7 68.7C111.7 64.5 111.7 60.3 111.7 56.1C112.2 56.1 112.6 56.1 113.1 56.1C113.1 54.8 113.1 53.5 113.1 52.2C110.9 52.2 108.7 52.2 106.6 52.2C106.6 53.5 106.6 54.8 106.6 56.1C107 56.1 107.4 56.1 107.9 56.1C108 57.4 108 58.8 107.9 60.3C108 60.3 108 60.3 107.9 60.3ZM126.2 63.7C126 64.1 125.7 64.4 125.3 64.6C124.8 64.8 124.3 64.8 123.9 64.8C122.8 64.7 121.9 64 121.6 62.9C121.2 61.1 121.2 59.3 121.6 57.5C121.8 56.5 122.4 55.9 123.3 55.6C124.3 55.3 125.3 55.4 126.2 56.1C126.7 56.4 127.1 56.9 127.4 57.4C127.5 57.6 127.6 57.7 127.8 57.7C128.9 57.7 130 57.7 131.1 57.7C131.2 57.7 131.3 57.7 131.4 57.7C131.5 56.7 131.4 52.3 131.3 52C130 52 128.7 51.9 127.4 52C127.4 52.2 127.4 52.3 127.4 52.5C127.4 52.6 127.4 52.8 127.4 53C127.3 52.9 127.2 52.9 127.2 52.9C124.8 51.5 122.2 51.3 119.5 52.2C117.3 53 115.7 54.4 114.7 56.5C113.8 58.5 113.7 60.5 114.3 62.6C114.8 64.3 115.7 65.8 117.1 66.8C117.9 67.4 118.8 67.7 119.7 68C121.6 68.6 123.5 68.7 125.4 68.4C127 68.2 128.5 67.5 129.7 66.4C130.7 65.4 131.4 64.3 131.7 62.9C131.9 62 131.9 61.1 131.9 60.3C131.9 60.1 131.9 59.8 131.9 59.6C131.2 59.5 124.8 59.5 124.6 59.6C124.6 60.6 124.6 61.6 124.6 62.7C125.2 62.7 125.8 62.7 126.4 62.7C126.4 63.1 126.3 63.4 126.2 63.7ZM92.7 68.2C92.7 66.9 92.7 65.6 92.7 64.3C92.2 64.3 91.7 64.3 91.3 64.3C91.2 63.7 91.3 56.1 91.3 55.8C91.7 55.8 92.2 55.8 92.7 55.8C92.7 54.5 92.7 53.2 92.7 51.9C92.1 51.8 83.6 51.9 83.4 51.9C83.3 52.7 83.4 55.5 83.5 55.8C84 55.8 84.4 55.8 84.9 55.8C84.9 58.6 84.9 61.4 84.9 64.3C84.4 64.3 83.9 64.3 83.5 64.3C83.5 65.6 83.5 66.9 83.5 68.2C84.1 68.4 92.5 68.3 92.7 68.2ZM80.3 56.1C80.4 56 80.5 56 80.7 55.9C81 55.8 81.4 55.8 81.8 55.8C81.9 54.5 81.9 53.2 81.9 52C81.3 51.9 74.1 51.9 73.8 52C73.7 52.6 73.8 55.6 73.8 55.9C74.2 55.9 74.5 55.9 74.9 55.9C74.9 55.9 74.9 55.9 74.9 56C73.6 57.2 72.2 58.5 70.8 59.8C72 61.3 73.1 62.8 74.3 64.3C74.1 64.4 73.9 64.5 73.7 64.5C73.6 65.4 73.7 68 73.7 68.3C76.5 68.3 79.3 68.3 82.1 68.3C82.1 67 82.1 65.8 82.1 64.5C81.9 64.5 81.8 64.4 81.7 64.4C81.4 64.3 81.2 64.2 81 63.9C79.8 62.4 78.7 60.9 77.5 59.3C77.4 59.2 77.3 59.1 77.2 58.9C78.2 58 79.2 57 80.3 56.1ZM114 73.1C113.7 73.1 113.5 73.1 113.2 73.1C113 73.1 112.9 73.2 112.7 73.3C112.1 73.9 111.5 74.6 110.9 75.2C110.8 75.3 110.7 75.4 110.6 75.5C110.6 74.6 110.6 73.8 110.6 72.9C110.6 72.1 110.6 71.2 110.6 70.4C110.4 70.4 110.3 70.4 110.1 70.4C110 70.4 109.8 70.4 109.7 70.4C109.6 70.9 109.6 78.2 109.7 78.5C110 78.5 110.2 78.5 110.5 78.5C110.5 77.7 110.5 76.8 110.6 76C110.7 76.1 110.8 76.1 110.8 76.2C111.4 76.9 112.1 77.6 112.7 78.3C112.8 78.4 112.9 78.5 113 78.5C113.4 78.5 113.7 78.5 114.2 78.5C113.3 77.5 112.4 76.6 111.5 75.7C112.5 74.8 113.3 74 114 73.1C114 73.1 114.1 73.1 114 73.1ZM75.4 78.1C75.4 77.2 75.4 76.3 75.4 75.3C75.4 74.8 75.6 74.3 76 74C76.8 73.3 77.9 73.7 78.1 74.7C78.1 74.9 78.2 75.2 78.2 75.4C78.2 76.3 78.2 77.2 78.2 78.1C78.2 78.2 78.2 78.4 78.2 78.5C78.5 78.5 78.8 78.5 79 78.5C79 78.4 79 78.4 79 78.4C79 77.2 79 76 79 74.8C79 74.5 78.9 74.2 78.8 73.9C78.6 73.5 78.4 73.2 77.9 73C77.1 72.7 76.2 72.9 75.6 73.5C75.5 73.6 75.5 73.7 75.3 73.8C75.3 73.5 75.3 73.3 75.3 73C75 73 74.7 73 74.4 73C74.3 73.4 74.3 78.2 74.4 78.4C74.7 78.4 74.9 78.4 75.2 78.4C75.4 78.4 75.4 78.2 75.4 78.1ZM133.7 78.1C133.7 77.3 133.7 76.6 133.7 75.8C133.7 75.3 133.8 74.8 134 74.4C134.3 73.9 134.8 73.7 135.4 73.9C135.5 73.9 135.6 73.9 135.6 74C135.6 73.7 135.6 73.4 135.6 73.1C134.7 72.8 134.1 73.3 133.7 74.1C133.7 74.1 133.7 74.1 133.6 74.1C133.6 73.8 133.6 73.5 133.6 73.2C133.3 73.2 133 73.2 132.7 73.2C132.7 75 132.7 76.8 132.7 78.6C133 78.6 133.3 78.6 133.6 78.6C133.7 78.4 133.7 78.2 133.7 78.1ZM109.6 29.3C111.2 29.3 112.5 28.1 112.5 26.5C112.5 25 111.2 23.7 109.7 23.7C108.4 23.7 106.9 24.7 106.9 26.5C106.9 28.1 108.3 29.3 109.6 29.3ZM99.7 23.7C98.2 23.7 97 24.9 96.9 26.5C96.9 28.3 98.3 29.3 99.6 29.3C101.1 29.3 102.5 28.2 102.5 26.5C102.6 24.9 101 23.7 99.7 23.7ZM112.2 35.9C111.8 35.8 111.5 35.7 111.1 35.6C109.2 35.1 107.3 35 105.4 35C103.4 34.9 101.4 35.1 99.4 35.3C98.4 35.4 97.5 35.6 96.6 35.9C96.5 35.9 96.5 36 96.4 36C96.4 36 96.4 36 96.4 36.1C96.7 36.1 97.1 36.1 97.4 36.1C99.2 36.1 101.1 36 102.9 36C105.3 35.9 107.6 36.1 110 36.2C110.7 36.2 111.4 36.2 112.1 36.2C112.2 35.9 112.2 35.9 112.2 35.9ZM102.8 30.1C102.2 30.1 101.7 30.5 101.5 31C102.4 31.7 103.7 31.6 104.2 30.7C103.9 30.3 103.3 30.2 102.8 30.1ZM105.1 30.8C105.5 31.1 106 31.3 106.6 31.3C107.2 31.3 107.6 31 107.8 30.4C106.9 29.8 105.7 29.9 105.1 30.8Z" fill="black"/>
</g>
<defs>
<clipPath id="clip0_4_749">
<rect width="210" height="89.9999" fill="white"/>
</clipPath>
</defs>
</svg>
