<svg width="210" height="90" viewBox="0 0 210 90" fill="none" xmlns="http://www.w3.org/2000/svg">
<g clip-path="url(#clip0_4_1020)">
<mask id="mask0_4_1020" style="mask-type:luminance" maskUnits="userSpaceOnUse" x="18" y="29" width="173" height="33">
<path d="M191 29H18V61.1239H191V29Z" fill="white"/>
</mask>
<g mask="url(#mask0_4_1020)">
<path d="M124.206 51.4879V44.3838L121.84 49.0055H120.19L117.807 44.3838V51.4879H115.374V39.3047H117.757L121.007 45.8862L124.24 39.3047H126.64V51.4879H124.206Z" fill="black"/>
<path d="M135.455 42.8976L133.889 47.3234H136.989L135.455 42.8976ZM138.355 51.4879L137.622 49.3322H133.206L132.456 51.4879H129.923L134.439 39.3047H136.339L140.872 51.4879H138.355Z" fill="black"/>
<path d="M148.887 41.4278H146.604V44.6451H148.887C149.954 44.6451 150.654 43.9755 150.654 43.0282C150.637 42.0974 149.954 41.4278 148.887 41.4278ZM150.771 51.4879L148.337 46.6212H146.588V51.4879H144.155V39.3047H149.021C151.554 39.3047 153.054 41.0032 153.054 43.0282C153.054 44.743 151.987 45.8046 150.787 46.2292L153.57 51.4879H150.771Z" fill="black"/>
<path d="M164.569 51.4879L161.369 45.9516L159.753 47.8297V51.4879H157.337V39.3047H159.753V44.6124L164.136 39.3047H167.102L162.969 44.1551L167.386 51.4879H164.569Z" fill="black"/>
<path d="M170.685 51.4879V39.3047H178.885V41.4278H173.118V44.2858H178.018V46.4088H173.118V49.3648H178.885V51.4879H170.685Z" fill="black"/>
<path d="M187.75 41.4278V51.4879H185.317V41.4278H182.068V39.3047H191V41.4278H187.75Z" fill="black"/>
<path d="M96.709 38.0312V39.6971H97.5923C97.5756 39.893 97.5089 40.0727 97.3923 40.2197C97.3589 40.2523 97.3256 40.285 97.2756 40.334L97.9589 40.9056C98.0589 40.8239 98.1589 40.7259 98.2255 40.628C98.4422 40.334 98.5422 39.9257 98.5422 39.4194V38.0312H96.709Z" fill="#8E8E8E"/>
<path d="M65.379 51.3905V44.368L63.0293 48.9407H61.4127L59.0463 44.368V51.3905H56.6465V39.3379H59.013L62.2293 45.8541L65.4124 39.3379H67.7788V51.3905H65.379Z" fill="black"/>
<path d="M72.3613 51.3905V39.3379H80.4605V41.4446H74.761V44.27H79.6105V46.3604H74.761V49.3H80.4605V51.3905H72.3613Z" fill="black"/>
<path d="M91.7932 51.3905L86.927 43.9923V51.3905H84.5273V39.3379H86.6771L91.5433 46.7197V39.3379H93.943V51.3905H91.7932Z" fill="black"/>
<path d="M104.675 51.4881C102.809 51.4881 101.392 51.0962 100.192 49.904L101.742 48.3852C102.525 49.1527 103.575 49.3977 104.709 49.3977C106.125 49.3977 106.875 48.8751 106.875 47.9116C106.875 47.4869 106.758 47.1277 106.492 46.899C106.242 46.6867 105.975 46.5561 105.409 46.4744L103.925 46.2784C102.875 46.1314 102.092 45.8048 101.542 45.2822C100.959 44.7106 100.659 43.9267 100.659 42.9141C100.659 40.7584 102.276 39.2559 104.942 39.2559C106.642 39.2559 107.858 39.6642 108.908 40.6604L107.392 42.1302C106.608 41.3953 105.675 41.2973 104.875 41.2973C103.592 41.2973 102.975 41.9833 102.975 42.8162C102.975 43.1265 103.075 43.4368 103.342 43.6817C103.575 43.894 103.975 44.09 104.475 44.1553L105.925 44.3513C107.042 44.4983 107.758 44.8086 108.275 45.2822C108.925 45.8865 109.225 46.7684 109.225 47.8299C109.225 50.1653 107.242 51.4881 104.675 51.4881Z" fill="black"/>
<path d="M39.3814 37.0684L34.4319 46.3446L29.3991 37.0684H26.1494V53.2038H29.5324V43.7642L33.232 50.3948H35.6485L39.2481 43.7806V53.2038H42.6311V37.0684H39.3814Z" fill="black"/>
<path d="M32.915 35.6316V38.1956H34.2649C34.2482 38.5059 34.1315 38.7672 33.9482 38.9959C33.8982 39.0449 33.8482 39.1102 33.7816 39.1592L34.8315 40.0247C34.9981 39.8941 35.1314 39.7471 35.2481 39.6001C35.5814 39.1428 35.748 38.5223 35.748 37.7383V35.6152H32.915V35.6316Z" fill="#8E8E8E"/>
<path d="M50.7802 61.1239H18V29H50.7802V61.1239ZM20.2164 58.9518H48.5637V31.1721H20.2164V58.9518Z" fill="#8E8E8E"/>
</g>
</g>
<defs>
<clipPath id="clip0_4_1020">
<rect width="210" height="89.9999" fill="white"/>
</clipPath>
</defs>
</svg>
