<svg width="210" height="90" viewBox="0 0 210 90" fill="none" xmlns="http://www.w3.org/2000/svg">
<g clip-path="url(#clip0_4_703)">
<path d="M89.4592 55.2C89.4592 55.2 89.2592 55.4 89.1592 55.5C88.0592 56.6 86.7592 57.3 85.2592 57.5C82.9592 57.9 80.8592 57.6 78.8592 56.4C77.1592 55.4 76.0592 53.9 75.4592 52C74.8592 50.4 74.7592 48.7 74.8592 47C74.9592 45.4 75.3592 43.9 76.2592 42.5C77.2592 40.8 78.7592 39.7 80.6592 39.1C82.2592 38.6 83.8592 38.5 85.4592 38.8C86.9592 39.1 88.2592 39.7 89.2592 40.8C89.3592 40.9 89.5592 41.1 89.5592 41.1C89.5592 41.1 89.5592 40.8 89.5592 40.7C89.5592 40.3 89.5592 39.1 89.5592 39.1H94.1592C94.1592 39.1 94.1592 51.1 94.1592 56.8C94.1592 57 94.1592 57.3 94.1592 57.3H89.5592C89.5592 57.3 89.5592 56.2 89.5592 55.8C89.5592 55.6 89.4592 55.2 89.4592 55.2ZM84.5592 42.7C84.2592 42.7 83.8592 42.8 83.5592 42.8C83.4592 42.8 83.2592 42.9 83.1592 42.9C81.1592 43.4 79.9592 45.1 79.6592 46.9C79.5592 47.7 79.5592 48.5 79.6592 49.3C79.7592 50.3 80.1592 51.2 80.7592 51.9C81.5592 52.9 82.6592 53.3 83.8592 53.5C85.8592 53.7 87.8592 52.9 88.8592 50.9C89.5592 49.4 89.6592 47.8 89.2592 46.3C88.6592 44.1 86.8592 42.7 84.5592 42.7ZM56.2592 57.4H56.9592L58.9592 56.7C58.9592 56.7 63.3592 57.8 65.5592 57.6C66.7592 57.5 67.9592 57.3 69.1592 56.8C72.1592 55.5 72.8592 52.8 72.0592 50.2C71.6592 48.8 70.5592 47.9 69.3592 47.2C68.2592 46.6 66.9592 46.2 65.7592 45.7C64.6592 45.5 63.6592 45.1 62.6592 44.6C61.8592 44.2 61.2592 43.5 61.1592 42.6C61.0592 41.6 61.5592 40.3 62.5592 39.9C63.1592 39.6 63.8592 39.5 64.4592 39.6C64.9592 39.6 65.3592 39.8 65.7592 40.2C66.9592 41.6 68.2592 43 69.4592 44.4C69.8592 44.8 70.7592 45.8 70.7592 45.8H71.4592C71.4592 45.8 71.4592 45.5 71.4592 45.4C71.4592 43.3 71.4592 38.8 71.4592 38.8H70.6592L69.8592 39.1L68.9592 39.4L68.3592 39.3C68.3592 39.3 67.9592 39.2 67.7592 39.1C66.5592 38.8 65.2592 38.6 64.0592 38.6C62.4592 38.6 61.0592 38.8 59.6592 39.3C57.6592 40.1 56.3592 41.4 56.0592 43.6C55.8592 45 56.1592 46.3 57.0592 47.4C57.8592 48.5 59.0592 49.2 60.2592 49.7C61.5592 50.2 62.9592 50.7 64.3592 51.2C65.2592 51.5 66.1592 52 66.5592 53C67.2592 54.2 66.8592 55.7 65.6592 56.3C64.7592 56.8 63.7592 56.8 62.7592 56.6C62.6592 56.6 62.4592 56.5 62.3592 56.4C60.9592 54.9 59.6592 53.4 58.3592 51.9C57.8592 51.4 56.8592 50.1 56.8592 50.1H56.2592V57.4ZM147.459 48.1C145.459 48.1 143.459 48.1 141.459 48.1C141.259 48.1 141.059 48.1 141.059 48.1C141.059 48.1 141.059 48.3 141.059 48.5C141.359 51.2 143.259 54 146.459 54.5C149.259 54.9 151.259 53.8 152.659 51.5C152.759 51.4 152.859 51.2 152.859 51.2L152.959 51L153.559 51.3V51.4C153.559 51.4 153.459 51.6 153.459 51.7C152.759 53.6 151.559 55.2 149.859 56.4C148.959 57 147.859 57.4 146.759 57.6C145.559 57.8 144.359 57.9 143.059 57.7C139.959 57.2 137.459 55.8 135.759 53.1C135.159 52.2 134.859 51.2 134.659 50.1C134.459 48.9 134.359 47.8 134.559 46.6C134.959 44.1 136.259 42.1 138.259 40.6C140.159 39.2 142.359 38.7 144.759 38.7C146.459 38.7 147.959 39.1 149.459 39.9C151.159 40.8 152.259 42.2 153.059 44C153.559 45.2 153.759 46.6 153.759 47.9C153.759 48 153.759 48.2 153.759 48.2C153.759 48.2 153.559 48.2 153.459 48.2C151.459 48.1 149.459 48.1 147.459 48.1ZM144.559 47.1C145.659 47.1 146.759 47.1 147.759 47.1C148.159 47.1 148.159 47.1 148.159 46.7C148.159 46 148.159 45.3 148.059 44.6C147.959 43.5 147.859 42.3 147.459 41.3C147.159 40.6 146.859 39.9 146.159 39.5C144.959 38.8 143.159 39 142.259 40.5C141.559 41.7 141.259 43 141.159 44.4C141.059 45.2 141.059 46 140.959 46.7C140.959 47.1 140.959 47.1 141.359 47.1C142.359 47.1 143.459 47.1 144.559 47.1ZM115.259 39H113.459H113.259V39.7L115.659 42.7L123.359 57.2H125.659L132.659 41.6L134.959 39.7V39H129.459V39.7L131.559 41.5L127.059 51.4L122.059 41.7L123.659 39.7V39H123.159C123.159 39 119.959 39 118.359 39C117.459 39 115.259 39 115.259 39ZM110.959 32H106.259V57.3H110.959C110.959 57.3 110.959 48.8 110.959 44.7C110.959 40.5 110.959 32 110.959 32ZM102.559 32H97.8592V57.3H102.559C102.559 57.3 102.559 48.8 102.559 44.7C102.559 40.5 102.559 32 102.559 32Z" fill="black"/>
</g>
<defs>
<clipPath id="clip0_4_703">
<rect width="210" height="89.9999" fill="white"/>
</clipPath>
</defs>
</svg>
