<svg width="210" height="90" viewBox="0 0 210 90" fill="none" xmlns="http://www.w3.org/2000/svg">
<g clip-path="url(#clip0_4_724)">
<path d="M115.132 44.0801C115.132 38.1201 119.512 33.8331 125.581 33.8331C131.122 33.8331 135.871 37.9633 135.924 44.1324C135.977 50.0924 131.491 54.3795 125.317 54.3795C119.406 54.3795 115.079 50.0924 115.132 44.0801ZM125.422 51.2949C129.591 51.2949 132.652 48.3149 132.652 44.1847C132.652 40.1068 129.486 36.8654 125.475 36.9177C121.359 36.9177 118.193 40.0545 118.245 44.1324C118.245 48.2626 121.306 51.2949 125.422 51.2949ZM42.0417 35.7675C42.2528 35.4538 42.7805 34.9833 42.5166 34.5128C42.2 34.0422 41.7778 34.1468 41.1973 34.1468C40.6168 34.1468 26.9487 34.1468 26.4738 34.1468C25.9988 34.1468 25.946 34.7742 25.946 35.6107C25.946 36.4471 25.8933 37.2314 26.4738 37.2314C27.0543 37.2314 36.7117 37.2314 36.7117 37.2314C36.7117 37.2314 29.0069 48.0012 25.5766 52.7065C25.3655 53.0202 24.8378 53.543 25.0489 53.9612C25.26 54.3795 25.5239 54.484 26.5265 54.484C27.5292 54.484 41.1446 54.484 41.6723 54.484C42.2 54.484 42.4111 53.6475 42.4111 52.7065C42.4111 51.8177 42.3583 51.2426 41.6723 51.2949C40.9862 51.2949 30.7484 51.3472 30.7484 51.3472C30.7484 51.3472 38.717 40.4205 42.0417 35.7675ZM143.629 35.8198C143.787 37.2836 144.051 38.8521 144.684 40.1591C146.32 43.6096 150.331 45.1258 154.711 44.1847C158.564 43.3482 161.097 40.4205 161.202 36.238C161.308 32.6306 161.202 29.0233 161.255 25.3636C161.255 24.0566 160.411 24.0566 159.461 24.0566C158.511 24.0566 157.878 24.2657 157.93 25.3636C157.983 27.0889 157.983 34.931 157.719 37.0222C157.508 38.9566 156.347 40.4728 154.395 40.9956C152.231 41.5707 150.014 41.5184 148.378 39.7408C147.745 39.0612 147.165 38.0156 147.112 37.1268C146.954 33.258 146.954 29.3892 147.006 25.5727C147.006 24.5794 146.743 24.0566 145.687 24.0566C143.946 24.0566 143.629 24.2134 143.629 25.4682C143.629 27.2457 143.418 34.1468 143.629 35.8198ZM95.0254 44.8644C92.0173 45.9623 90.5925 48.7331 91.4896 51.6086C92.1229 53.6475 93.6533 54.7454 95.5531 55.3205C97.3474 55.7911 99.0361 56.0525 100.83 56.523C101.886 56.7844 103.1 57.2549 103.311 58.5097C103.469 59.5553 102.783 60.81 101.464 61.2805C99.8277 61.9079 97.664 62.0125 94.0755 60.7054C92.9672 60.3395 92.334 60.9146 91.8063 62.2739C91.3841 63.3718 92.6506 63.6855 93.02 63.79C94.2338 64.3128 96.6086 64.9402 98.7195 64.9925C100.883 65.097 103.469 64.1037 105.052 62.483C107.744 59.7644 106.952 55.5296 103.416 53.9612C102.361 53.4907 101.253 53.177 100.092 52.8633C98.825 52.4974 97.5057 52.2882 96.2392 51.87C95.342 51.5563 94.5504 51.0858 94.4977 49.9879C94.4449 48.7854 95.5003 48.1058 96.2919 47.7921C97.0307 47.4784 98.6667 47.2693 99.8277 47.3216C101.041 47.3738 102.255 47.8444 103.416 48.1581C104.313 48.3672 105.21 47.7921 105.685 46.6942C106.108 45.7009 105.316 45.3349 104.683 45.178C102.783 44.7075 98.9306 43.4005 95.0254 44.8644ZM70.6972 34.6696C67.6892 35.7675 66.2643 38.5384 67.1614 41.4138C67.7947 43.4528 69.3251 44.5507 71.2249 45.1258C73.0192 45.5963 74.7079 45.8577 76.5022 46.3282C77.5577 46.5896 78.7714 47.0602 78.9825 48.3149C79.1408 49.3605 78.4548 50.6153 77.1355 51.0858C75.4995 51.7131 73.3358 51.8177 69.7473 50.5107C68.6391 50.1447 68.0058 50.7198 67.4781 52.0791C67.0559 53.177 68.3224 53.4907 68.6919 53.5953C69.9056 54.1181 72.2804 54.7454 74.3913 54.7977C76.555 54.9023 79.1408 53.9089 80.724 52.2882C83.4154 49.5696 82.6238 45.3349 79.0881 43.7665C78.0326 43.2959 76.9244 42.9823 75.7634 42.6686C74.4968 42.3026 73.1775 42.0935 71.911 41.6752C71.0138 41.3615 70.2223 40.891 70.1695 39.7931C70.1167 38.5907 71.1722 37.911 71.9638 37.5973C72.7026 37.2836 74.3385 37.0745 75.4995 37.1268C76.7133 37.1791 77.9271 37.6496 79.0881 37.9633C79.9852 38.1724 80.8823 37.5973 81.3573 36.4994C81.7795 35.5061 80.9879 35.1401 80.3546 34.9833C78.4548 34.5128 74.6024 33.2057 70.6972 34.6696ZM55.7626 25.4682C55.7626 24.0566 55.7098 24.1089 53.9683 24.0043C52.8073 23.952 52.3851 24.3703 52.4379 25.5205C52.4907 31.1668 52.4379 36.8131 52.4379 42.4594C52.4379 43.9233 52.5962 44.0801 54.2849 44.0279C55.657 44.0279 55.7626 43.871 55.7626 42.3549C55.7626 39.584 55.7626 36.7608 55.7626 33.9899C55.7626 31.2191 55.7626 28.3436 55.7626 25.4682ZM166.954 56.4184H167.904V52.9679L169.488 54.9023L171.071 52.9679V56.4184H172.021V51.3995H171.071L169.488 53.543L167.904 51.3995H166.954V56.4184ZM153.972 56.523C152.548 56.523 151.598 55.8956 151.228 54.9023C150.806 53.8567 151.07 52.6019 151.861 51.87C152.864 50.9812 154.711 50.9812 155.714 51.9223C156.664 52.811 156.822 54.4318 156.031 55.4774C155.45 56.2616 154.658 56.523 153.972 56.523ZM155.608 53.9089C155.608 52.811 154.87 52.0791 153.814 52.0791C152.759 52.0791 152.02 52.811 152.02 53.9089C152.02 55.0068 152.759 55.7388 153.814 55.7388C154.87 55.7388 155.608 55.0068 155.608 53.9089ZM143.576 56.4184C143.576 54.7454 143.576 53.0724 143.576 51.4517L143.629 51.3995C144.421 51.3995 145.212 51.3472 146.004 51.4517C147.217 51.5563 147.956 52.3405 148.009 53.4907C148.009 53.9612 148.009 54.484 147.851 54.9023C147.587 55.7911 146.954 56.3139 146.056 56.3661C145.265 56.4707 144.421 56.4184 143.576 56.4184ZM144.421 55.6342C144.895 55.6342 145.37 55.6865 145.793 55.6342C146.268 55.5819 146.637 55.3205 146.848 54.9023C147.165 54.2749 147.165 53.5953 146.901 52.9679C146.743 52.6019 146.32 52.236 145.951 52.1837C145.423 52.0791 144.421 52.1314 144.421 52.1314C144.421 52.1314 144.421 54.484 144.421 55.6342ZM163.894 56.4184H162.838L161.73 54.6932H160.516C160.516 54.6932 160.516 55.8956 160.516 56.4184C160.2 56.4184 159.936 56.4184 159.619 56.4184C159.619 54.7454 159.619 53.0725 159.619 51.3995L159.672 51.3472C160.463 51.3472 161.308 51.2949 162.099 51.3995C162.997 51.4517 163.524 51.9223 163.683 52.7065C163.841 53.4907 163.63 54.1181 162.733 54.484C162.733 54.484 162.68 54.484 162.627 54.5363C163.049 55.0591 163.894 56.4184 163.894 56.4184ZM160.516 52.1837V53.9089C160.516 53.9089 161.519 53.9612 161.994 53.8567C162.522 53.7521 162.733 53.5953 162.733 53.0724C162.733 52.5496 162.469 52.236 161.941 52.1837C161.519 52.1314 160.516 52.1837 160.516 52.1837ZM184 56.4184H182.945L181.836 54.6932H180.623C180.623 54.6932 180.623 55.8956 180.623 56.4184C180.306 56.4184 180.042 56.4184 179.725 56.4184C179.725 54.7454 179.725 53.0725 179.725 51.3995L179.778 51.3472C180.57 51.3472 181.414 51.2949 182.206 51.3995C183.103 51.4517 183.631 51.9223 183.789 52.7065C183.947 53.4907 183.736 54.1181 182.839 54.484C182.839 54.484 182.786 54.484 182.733 54.5363C183.156 55.0591 184 56.4184 184 56.4184ZM180.675 52.1837V53.9089C180.675 53.9089 181.678 53.9612 182.153 53.8567C182.681 53.7521 182.892 53.5953 182.892 53.0724C182.892 52.5496 182.628 52.236 182.1 52.1837C181.625 52.1314 180.675 52.1837 180.675 52.1837ZM184 64.5742H182.945L181.836 62.849H180.623C180.623 62.849 180.623 64.0514 180.623 64.5742C180.306 64.5742 180.042 64.5742 179.725 64.5742C179.725 62.9012 179.725 61.2283 179.725 59.5553L179.778 59.503C180.57 59.503 181.414 59.4507 182.206 59.5553C183.103 59.6075 183.631 60.0781 183.789 60.8623C183.947 61.6465 183.736 62.2739 182.839 62.6398C182.839 62.6398 182.786 62.6398 182.733 62.6921C183.156 63.2149 184 64.5742 184 64.5742ZM180.675 60.3395V62.0647C180.675 62.0647 181.678 62.117 182.153 62.0125C182.681 61.9079 182.892 61.7511 182.892 61.2283C182.892 60.7054 182.628 60.3918 182.1 60.3395C181.625 60.2872 180.675 60.3395 180.675 60.3395ZM144.315 61.9079C144.209 61.7511 144.104 61.6465 143.998 61.4897C143.471 60.7054 143.787 59.7644 144.684 59.5553C144.948 59.503 145.265 59.503 145.582 59.5553C146.109 59.6598 146.426 59.9212 146.584 60.444C146.69 60.9668 146.584 61.4374 146.162 61.7511C146.004 61.9079 145.793 62.0125 145.687 62.0647C145.951 62.3784 146.268 62.7444 146.637 63.1104C146.743 62.7967 146.848 62.483 146.954 62.2216C147.112 62.2216 147.323 62.2216 147.587 62.2216C147.64 62.7444 147.429 63.1626 147.112 63.5809C147.323 63.79 147.587 63.9991 147.798 64.2605C147.64 64.4174 147.481 64.5742 147.27 64.7311C147.059 64.5219 146.848 64.3128 146.584 64.1037C145.951 64.6788 145.212 64.7833 144.421 64.6265C143.734 64.4697 143.365 64.1037 143.26 63.4763C143.154 62.849 143.471 62.3262 144.051 62.0125C144.157 62.0125 144.209 61.9602 144.315 61.9079ZM146.004 63.6332C145.634 63.2149 145.265 62.849 144.895 62.4307C144.843 62.3784 144.79 62.3784 144.737 62.3784C144.526 62.4307 144.209 62.7444 144.157 63.0058C144.104 63.3195 144.209 63.6332 144.473 63.79C144.948 64.1037 145.687 63.9991 146.004 63.6332ZM145.845 60.81C145.845 60.444 145.582 60.1826 145.159 60.1826C144.79 60.1826 144.526 60.444 144.526 60.81C144.526 61.0714 144.895 61.6465 145.107 61.6465C145.37 61.6988 145.845 61.176 145.845 60.81ZM176.559 60.3395C176.559 60.0781 176.559 59.8167 176.559 59.6075C175.345 59.6075 174.132 59.6075 172.971 59.6075C172.971 61.2805 172.971 62.9535 172.971 64.6265C174.237 64.6265 175.451 64.6265 176.717 64.6265C176.717 64.3651 176.717 64.156 176.717 63.8946C175.767 63.8946 174.818 63.8946 173.868 63.8946C173.868 63.4241 173.868 63.0058 173.868 62.5353C174.659 62.5353 175.398 62.5353 176.137 62.5353C176.137 62.2739 176.137 62.0647 176.137 61.8033C175.345 61.8033 174.606 61.8033 173.815 61.8033C173.815 61.3328 173.815 60.8623 173.815 60.3918C174.765 60.3395 175.662 60.3395 176.559 60.3395ZM155.661 64.6788H156.4L158.405 59.503H157.455L156.083 63.2672L154.711 59.503H153.709L155.661 64.6788ZM167.377 64.6788H168.115L170.121 59.503H169.171L167.799 63.2672L166.427 59.503H165.424L167.377 64.6788ZM176.348 51.3995C176.031 51.3995 175.767 51.3995 175.504 51.3995C175.504 53.0725 175.504 54.7454 175.504 56.4184C175.82 56.4184 176.084 56.4184 176.348 56.4184C176.348 54.7454 176.348 53.0725 176.348 51.3995ZM162.31 59.5553H161.413V64.6265H162.258V59.5553H162.31Z" fill="black"/>
</g>
<defs>
<clipPath id="clip0_4_724">
<rect width="210" height="89.9999" fill="white"/>
</clipPath>
</defs>
</svg>
